# xmcd CD database file
#
# Track frame offsets:
#	180
#	10146
#	22529
#	33231
#	45481
#	56728
#	68625
#	80581
#	94318
#	105957
#	118754
#	131555
#	143770
#	154529
#	166626
#	179035
#	191019
#	203089
#	214986
#	226513
#	238563
#	248186
#	261502
#	274207
#	285589
#	297545
#
# Disc length: 4136 seconds
#
# Revision: 0
# Processed by: cddbd v1.5.2PL0 Copyright (c) Steve Scherf et al.
# Submitted via: CDex 1.51
#
DISCID=6b10261a
DTITLE=Country Trail - CD 3
DYEAR=1900
DGENRE=Country
TTITLE0=Tennessee Ernie Ford - Rock City Boogie
TTITLE1=Woodie Brothers - Like Likker Better Than Me
TTITLE2=Art Gunn - Boggie Woggie Blues
TTITLE3=Boots Woodall - Rattlesnakin Daddy
TTITLE4=Lone Star Playboys - Steel Guitar Bounce
TTITLE5=Billy Brigges - Panhandel Shuffel
TTITLE6=Merle Travis - Nine pound Hammer
TTITLE7=Tennessie Ernie Ford - Mule Train
TTITLE8=Hank Penny - Hillbilly Jump
TTITLE9=Merle Travis - Sixteen Tons
TTITLE10=Johnny Bond - Mean Mama Boggie
TTITLE11=Roy Acuff - I saw the Light
TTITLE12=Hank Williams - I can´t help it
TTITLE13=Buck Roberts - Big Beaver
TTITLE14=Casey Bill Weldon - Go ahead Buddy
TTITLE15=Floyd Tillman - Drivin nails in my Coffin
TTITLE16=Bing Crosby - Dear Hearts and Gentel People
TTITLE17=Jimmy Revard - Fox and Hounds
TTITLE18=Chet Atkins - Canned Heat
TTITLE19=Al Dexter - Saturday night Boogie
TTITLE20=Tennessie Ernie Ford - Anticipation Blues
TTITLE21=Doch Boggs - Country Blues
TTITLE22=Ernest Phipps - A littel Talk with Jesus
TTITLE23=Riverside Ramblers - Dissatisfied
TTITLE24=Jimmy Widener - I´ve got the Hesitation Blues
TTITLE25=Spade Cooley - Oklahoma Stomp
EXTD=
EXTT0=
EXTT1=
EXTT2=
EXTT3=
EXTT4=
EXTT5=
EXTT6=
EXTT7=
EXTT8=
EXTT9=
EXTT10=
EXTT11=
EXTT12=
EXTT13=
EXTT14=
EXTT15=
EXTT16=
EXTT17=
EXTT18=
EXTT19=
EXTT20=
EXTT21=
EXTT22=
EXTT23=
EXTT24=
EXTT25=
PLAYORDER=
